<?xml version="1.0" standalone="no"?>
<!DOCTYPE svg PUBLIC "-//W3C//DTD SVG 1.1//EN"
  "http://www.w3.org/Graphics/SVG/1.1/DTD/svg11.dtd">
<svg width="29.71754741668701mm" height="122mm" viewBox="-40.145999908447266 -56 29.71754741668701 122" xmlns="http://www.w3.org/2000/svg" version="1.1">
	<title>svgOutput</title>
	<desc>made with tinkercad</desc>
<path d="M -24 65 L -39 65 L -39.145999908447266 65 L -39.145999908447266 46.303001403808594 L -39 46.303001403808594 L -37.14400100708008 46.303001403808594 L -37.14400100708008 -49.99800109863281 L -37.14400100708008 -51.00199890136719 L -39 -51.00199890136719 L -39.145999908447266 -51.00199890136719 L -39.145999908447266 -55 L -39 -55 L -24 -55 L -11.428452491760254 -55 L -12.065522193908691 -52.00299835205078 L -12.491722106933594 -49.99800109863281 L -24 4.141048908233643 L -32.00199890136719 41.785316467285156 L -35.87387466430664 60 L -24 60 L -24 65 M -32.00199890136719 13.003000259399414 L -24 -22.075592041015625 L -18.99799919128418 -44.00299835205078 L -24 -44.00299835205078 L -32.00199890136719 -44.00299835205078 L -32.00199890136719 13.003000259399414 M -22.14900016784668 -49.99800109863281 L -17.630441665649414 -49.99800109863281 L -17.143999099731445 -49.99800109863281 L -17.143999099731445 -52.00299835205078 L -22.14900016784668 -52.00299835205078 L -22.14900016784668 -49.99800109863281 M -33.14899826049805 -52.00299835205078 L -33.14899826049805 -49.99800109863281 L -32.00199890136719 -49.99800109863281 L -28.143999099731445 -49.99800109863281 L -28.143999099731445 -52.00299835205078 L -33.14899826049805 -52.00299835205078 z" fill="none" stroke="rgb(255,0,0)" stroke-width="0.001mm" />
</svg>