<?xml version="1.0" standalone="no"?>
<!DOCTYPE svg PUBLIC "-//W3C//DTD SVG 1.1//EN"
  "http://www.w3.org/Graphics/SVG/1.1/DTD/svg11.dtd">
<svg width="152mm" height="120mm" viewBox="-42 -54 152 120" xmlns="http://www.w3.org/2000/svg" version="1.1">
	<title>svgOutput</title>
	<desc>made with tinkercad</desc>
<path d="M 109 65 L 90.00299835205078 65 L 81.00299835205078 65 L 75.99800109863281 65 L 67.9906005859375 65 L 40.990604400634766 65 L -9.996999740600586 65 L -15.003000259399414 65 L -24.00200080871582 65 L -41 65 L -41 -53 L -24.00200080871582 -53 L -15.003000259399414 -53 L -9.996999740600586 -53 L 75.99800109863281 -53 L 81.00299835205078 -53 L 90.00299835205078 -53 L 109 -53 L 109 65 M -10 20.99799919128418 L -20.003000259399414 31.003000259399414 L 0.0020000000949949026 31.003000259399414 L -10 20.99799919128418 M 33.99400329589844 58.00199890136719 L 60.99400329589844 58.00199890136719 L 75.99800109863281 58.00199890136719 L 81.00299835205078 58.00199890136719 L 88.99400329589844 58.00199890136719 L 90.00299835205078 58.00199890136719 L 90.00299835205078 45.99700164794922 L 76.99140167236328 45.99700164794922 L 48.99140167236328 45.99700164794922 L 21.99140167236328 45.99700164794922 L -24.00200080871582 45.99700164794922 L -24.00200080871582 58.00199890136719 L -15.003000259399414 58.00199890136719 L -9.996999740600586 58.00199890136719 L 33.99400329589844 58.00199890136719 M -9.996999740600586 59.99800109863281 L -15.003000259399414 59.99800109863281 L -15.003000259399414 62.00299835205078 L -9.996999740600586 62.00299835205078 L -9.996999740600586 59.99800109863281 M -6.001999855041504 17.99799919128418 L 4 28.00200080871582 L 14.003000259399414 17.99799919128418 L 12.992302894592285 17.99799919128418 L -6.001999855041504 17.99799919128418 M 75.99800109863281 -41.00299835205078 L 75.99800109863281 -38.99800109863281 L 81.00299835205078 -38.99800109863281 L 81.00299835205078 -41.00299835205078 L 75.99800109863281 -41.00299835205078 M 69.00189971923828 -1.0008995532989502 L 69.00299835205078 -1.0019999742507935 L 48.99800109863281 -1.0019999742507935 L 59 9.003000259399414 L 69.00189971923828 -1.0008995532989502 M 18 20.99799919128418 L 7.998000144958496 31.003000259399414 L 28.003000259399414 31.003000259399414 L 18 20.99799919128418 M 83.00299835205078 13.003000259399414 L 73 2.997999906539917 L 62.9984016418457 13.002599716186523 L 62.99800109863281 13.003000259399414 L 62.998802185058594 13.003000259399414 L 83.00299835205078 13.003000259399414 M 20.99799919128418 17.99799919128418 L 31 28.00200080871582 L 41.00299835205078 17.99799919128418 L 39.99230194091797 17.99799919128418 L 20.99799919128418 17.99799919128418 M 67.99230194091797 17.99799919128418 L 48.99800109863281 17.99799919128418 L 59 28.00200080871582 L 69.00299835205078 17.99799919128418 L 67.99230194091797 17.99799919128418 M 45 2.997999906539917 L 34.9984016418457 13.002599716186523 L 34.99800109863281 13.003000259399414 L 34.998802185058594 13.003000259399414 L 55.00299835205078 13.003000259399414 L 45 2.997999906539917 M 75.99800109863281 62.00299835205078 L 81.00299835205078 62.00299835205078 L 81.00299835205078 59.99800109863281 L 75.99800109863281 59.99800109863281 L 75.99800109863281 62.00299835205078 M 31 9.003000259399414 L 41.00189971923828 -1.0008995532989502 L 41.00299835205078 -1.0019999742507935 L 20.99799919128418 -1.0019999742507935 L 31 9.003000259399414 M 34.99800109863281 31.003000259399414 L 55.00299835205078 31.003000259399414 L 45 20.99799919128418 L 34.99800109863281 31.003000259399414 M 83.00299835205078 31.003000259399414 L 73 20.99799919128418 L 62.99800109863281 31.003000259399414 L 83.00299835205078 31.003000259399414 M 14.001899719238281 -1.0008995532989502 L 14.003000259399414 -1.0019999742507935 L -6.001999855041504 -1.0019999742507935 L 4 9.003000259399414 L 14.001899719238281 -1.0008995532989502 M -24.00200080871582 -4.997000217437744 L 90.00299835205078 -4.997000217437744 L 90.00299835205078 -37.00299835205078 L 81.00299835205078 -37.00299835205078 L 75.99800109863281 -37.00299835205078 L -9.996999740600586 -37.00299835205078 L -15.003000259399414 -37.00299835205078 L -24.00200080871582 -37.00299835205078 L -24.00200080871582 -4.997000217437744 M -15.003000259399414 -41.00299835205078 L -15.003000259399414 -38.99800109863281 L -9.996999740600586 -38.99800109863281 L -9.996999740600586 -41.00299835205078 L -15.003000259399414 -41.00299835205078 M 18 2.997999906539917 L 7.9984002113342285 13.002599716186523 L 7.998000144958496 13.003000259399414 L 7.998800754547119 13.003000259399414 L 28.003000259399414 13.003000259399414 L 18 2.997999906539917 M -20.003000259399414 13.003000259399414 L 0.0020000000949949026 13.003000259399414 L -10 2.997999906539917 L -20.003000259399414 13.003000259399414 z" fill="none" stroke="rgb(255,0,0)" stroke-width="0.001mm" />
</svg>